<?xml version="1.0" encoding="UTF-8" standalone="no"?>
<svg
   width="20"
   height="20"
   viewBox="0 0 20 20"
   version="1.1"
   id="fire-icon"
   xmlns="http://www.w3.org/2000/svg"
   xmlns:svg="http://www.w3.org/2000/svg">
  <path
     d="m 7.7535067,19.778 c -2.503,-0.801 -4.577,-2.755 -5.65,-5.733 -1.59599994,-4.2450001 1.693,-7.6220001 1.693,-7.6220001 0,0 -0.095,0.866 0.31,1.822 0.404,0.955 1.191,1.644 1.191,1.644 0,0 -0.762,-2 1.097,-5.333 C 8.4915067,0.79999985 13.114507,-1.5e-7 13.114507,-1.5e-7 c 0,0 -1.168,1.80000005 -0.645,3.64400005 0.406,1.379 1.072,2.045 1.812,3.912 0.739,1.911 0.62,2.9550001 0.62,2.9550001 0,0 0.215,-1.1770001 0.739,-1.9770001 1.144,-1.756 2.693,-2.178 2.693,-2.178 0,0 -0.81,1.6 -0.619,3.7550001 0.142,1.578 0.38,3.4 -0.501,5.445 -0.692,1.622 -2.693,3.844 -5.505,4.444 1.621,-0.667 2.693,-2.222 2.574,-3.911 -0.072,-0.977 -0.691,-1.911 -1.358,-2.555 -0.406,2.466 -1.859,2.755 -1.859,2.755 0,0 0.834,-1.622 0.953,-3.422 0.072,-0.711 0.024,-1.467 -0.214,-2.222 -0.763,-2.5560002 -2.0730003,-3.2450002 -2.0730003,-3.2450002 0,0 0.4290003,1.489 -1.144,3.8890002 -1.097,1.667 -2.956,2.889 -2.884,5.377 0.048,1.334 0.882,2.468 2.05,3.112 z"
     fill="#000" />
</svg>
